<svg width="15" height="15" viewBox="0 0 15 15" fill="none" xmlns="http://www.w3.org/2000/svg">
<path d="M10.5608 0.913083V0.911719H10.4608H4.51148C2.51997 0.911719 0.9 2.53214 0.9 4.52411V10.4751C0.9 12.4669 2.51997 14.0874 4.51148 14.0874H10.4609C12.4523 14.0874 14.0723 12.4669 14.0723 10.4751V4.52411C14.0723 2.56559 12.5063 0.966242 10.5608 0.913083ZM13.1118 10.4751C13.1118 11.9371 11.9225 13.1267 10.4608 13.1267H4.51148C3.04981 13.1267 1.86049 11.9371 1.86049 10.4751V4.52411C1.86049 3.062 3.04981 1.87241 4.51148 1.87241H10.4609C11.9225 1.87241 13.1118 3.06199 13.1118 4.52411V10.4751Z" fill="white" stroke="white" stroke-width="0.2"/>
</svg>
